# Blender v2.79 (sub 0) OBJ File: 'trip_hammer.blend'
# www.blender.org
mtllib materials.mtl
o Object_0
v 1.000000 0.000000 3.000000
v 1.000000 -0.000000 4.000000
v 0.000000 -0.000000 4.000000
v 0.000000 0.000000 3.000000
v 0.000000 0.666667 4.000000
v 1.000000 0.666667 4.000000
v 1.000000 0.666667 3.000000
v 0.000000 0.666667 3.000000
v 0.312496 0.666667 3.000000
v 0.312496 0.666667 4.000000
v 0.000000 2.133333 4.000000
v 0.312496 2.133333 4.000000
v 0.312496 2.133333 3.000000
v 0.000000 2.133333 3.000000
v 0.687504 0.666667 4.000000
v 0.687504 0.666667 3.000000
v 0.687504 2.133333 4.000000
v 1.000000 2.133333 4.000000
v 1.000000 2.133333 3.000000
v 0.687504 2.133333 3.000000
v 1.062496 1.133333 3.437504
v 1.062496 1.133333 3.562496
v -0.062496 1.133333 3.562496
v -0.062496 1.133333 3.437504
v -0.062496 1.266667 3.562496
v 1.062496 1.266667 3.562496
v 1.062496 1.266667 3.437504
v -0.062496 1.266667 3.437504
v 0.624992 1.066667 0.937504
v 0.624992 1.066666 4.812496
v 0.375008 1.066666 4.812496
v 0.375008 1.066667 0.937504
v 0.375008 1.333333 4.812496
v 0.624992 1.333333 4.812496
v 0.624992 1.333334 0.937504
v 0.375008 1.333334 0.937504
v 1.000000 0.000000 0.000000
v 1.000000 0.000000 1.000000
v 0.000000 0.000000 1.000000
v 0.000000 0.000000 0.000000
v 0.000000 0.666667 1.000000
v 1.000000 0.666667 1.000000
v 1.000000 0.666667 0.000000
v 0.000000 0.666667 0.000000
v 0.875008 0.666667 0.124992
v 0.875008 0.666667 0.875008
v 0.124992 0.666667 0.875008
v 0.124992 0.666667 0.124992
v 0.124992 0.733334 0.875008
v 0.875008 0.733334 0.875008
v 0.875008 0.733334 0.124992
v 0.124992 0.733334 0.124992
v 0.750000 0.933334 0.062496
v 0.750000 0.933334 0.937504
v 0.250000 0.933334 0.937504
v 0.250000 0.933334 0.062496
v 0.250000 1.466667 0.937504
v 0.750000 1.466667 0.937504
v 0.750000 1.466667 0.062496
v 0.250000 1.466667 0.062496
v 0.687504 0.733334 0.124992
v 0.687504 0.733334 0.875008
v 0.312496 0.733334 0.875008
v 0.312496 0.733334 0.124992
v 0.250000 0.933334 0.875008
v 0.750000 0.933334 0.875008
v 0.750000 0.933334 0.124992
v 0.250000 0.933334 0.124992
v 0.750000 1.066666 5.250000
v 0.750000 1.066666 5.750000
v 0.250000 1.066666 5.750000
v 0.250000 1.066666 5.250000
v 0.250000 2.133333 5.750000
v 0.750000 2.133333 5.750000
v 0.750000 2.133333 5.250000
v 0.250000 2.133333 5.250000
v 0.750000 1.333333 5.000000
v 0.250000 1.333333 5.000000
v 0.750000 1.866666 5.000000
v 0.250000 1.866666 5.000000
v 0.687504 1.600000 4.687504
v 0.687504 1.600000 5.000000
v 0.312496 1.600000 5.000000
v 0.312496 1.600000 4.687504
v 0.312496 1.733333 5.000000
v 0.687504 1.733333 5.000000
v 0.687504 1.733333 4.687504
v 0.312496 1.733333 4.687504
v 0.687504 1.466666 4.812496
v 0.687504 1.466666 5.000000
v 0.312496 1.466666 5.000000
v 0.312496 1.466666 4.812496
v 0.750000 1.333333 6.000000
v 0.250000 1.333333 6.000000
v 0.250000 1.866666 6.000000
v 0.750000 1.866666 6.000000
v 0.687504 2.133333 5.500000
v 0.687504 2.133333 5.624992
v 0.312496 2.133333 5.624992
v 0.312496 2.133333 5.500000
v 0.312496 2.466666 5.624992
v 0.687504 2.466666 5.624992
v 0.687504 2.466666 5.500000
v 0.312496 2.466666 5.500000
v 0.687504 2.133333 5.375009
v 0.312496 2.133333 5.375009
v 0.687504 2.333333 5.375009
v 0.312496 2.333333 5.375009
v 0.687504 1.600000 6.000000
v 0.687504 1.600000 6.312496
v 0.312496 1.600000 6.312496
v 0.312496 1.600000 6.000000
v 0.312496 1.733333 6.187504
v 0.687504 1.733333 6.187504
v 0.687504 1.733333 6.000000
v 0.312496 1.733333 6.000000
v 0.687504 1.466666 6.000000
v 0.687504 1.466666 6.312496
v 0.312496 1.466666 6.312496
v 0.312496 1.466666 6.000000
v 0.687504 0.733333 5.375009
v 0.687504 0.733333 5.500000
v 0.312496 0.733333 5.500000
v 0.312496 0.733333 5.375009
v 0.312496 1.066666 5.500000
v 0.687504 1.066666 5.500000
v 0.687504 1.066666 5.375009
v 0.312496 1.066666 5.375009
v 0.687504 0.866666 5.624992
v 0.312496 0.866666 5.624992
v 0.312496 1.066666 5.624992
v 0.687504 1.066666 5.624992
v 1.000000 1.466666 5.375009
v 1.000000 1.466666 5.624992
v 0.750000 1.466666 5.624992
v 0.750000 1.466666 5.375009
v 0.750000 1.733333 5.624992
v 1.000000 1.733333 5.624992
v 1.000000 1.733333 5.375009
v 0.750000 1.733333 5.375009
v 0.250000 1.466666 5.375009
v 0.250000 1.466666 5.624992
v 0.000000 1.466666 5.624992
v 0.000000 1.466666 5.375009
v 0.000000 1.733333 5.624992
v 0.250000 1.733333 5.624992
v 0.250000 1.733333 5.375009
v 0.000000 1.733333 5.375009
vt 0.265625 0.617188
vt 0.281250 0.617188
vt 0.281250 0.859375
vt 0.265625 0.859375
vt 0.039062 0.519531
vt 0.039062 0.457031
vt 0.101562 0.457031
vt 0.101562 0.519531
vt 0.125000 0.718750
vt 0.125000 0.656250
vt 0.187500 0.656250
vt 0.187500 0.718750
vt -0.000000 0.519531
vt -0.000000 0.457031
vt 0.039062 0.457031
vt 0.039062 0.519531
vt 0.101562 0.457031
vt 0.140625 0.457031
vt 0.140625 0.519531
vt 0.101562 0.519531
vt 0.039062 0.457031
vt 0.039062 0.417969
vt 0.101562 0.417969
vt 0.101562 0.457031
vt 0.101562 0.558594
vt 0.039062 0.558594
vt 0.039062 0.519531
vt 0.101562 0.519531
vt 0.699219 0.964844
vt 0.699219 0.902344
vt 0.718750 0.902344
vt 0.718750 0.964844
vt 0.101562 0.312500
vt 0.101562 0.332031
vt 0.039062 0.332031
vt 0.039062 0.312500
vt 0.019531 0.332031
vt 0.039062 0.417969
vt 0.019531 0.417969
vt 0.121094 0.332031
vt 0.121094 0.417969
vt 0.101562 0.417969
vt 0.101562 0.332031
vt 0.039062 0.332031
vt 0.101562 0.332031
vt 0.101562 0.312500
vt 0.039062 0.312500
vt 0.039062 0.226562
vt 0.101562 0.226562
vt 0.679688 0.964844
vt 0.679688 0.902344
vt 0.699219 0.902344
vt 0.699219 0.964844
vt 0.101562 0.644531
vt 0.101562 0.664062
vt 0.039062 0.664062
vt 0.039062 0.644531
vt 0.101562 0.558594
vt 0.121094 0.558594
vt 0.121094 0.644531
vt 0.101562 0.644531
vt 0.039062 0.644531
vt 0.019531 0.644531
vt 0.019531 0.558594
vt 0.039062 0.750000
vt 0.039062 0.664062
vt 0.101562 0.664062
vt 0.101562 0.750000
vt 0.101562 0.644531
vt 0.140625 0.796875
vt 0.148438 0.796875
vt 0.148438 0.867188
vt 0.140625 0.867188
vt 0.132812 0.796875
vt 0.132812 0.867188
vt 0.125000 0.867188
vt 0.125000 0.796875
vt 0.156250 0.796875
vt 0.156250 0.867188
vt 0.148438 0.867188
vt 0.148438 0.796875
vt 0.140625 0.867188
vt 0.140625 0.796875
vt 0.140625 0.789062
vt 0.140625 0.796875
vt 0.132812 0.796875
vt 0.132812 0.789062
vt 0.140625 0.875000
vt 0.132812 0.875000
vt 0.132812 0.867188
vt 0.140625 0.867188
vt 0.218750 0.859375
vt 0.218750 0.617188
vt 0.234375 0.617188
vt 0.234375 0.859375
vt 0.250000 0.617188
vt 0.265625 0.617188
vt 0.265625 0.859375
vt 0.250000 0.859375
vt 0.535156 0.949219
vt 0.550781 0.949219
vt 0.550781 0.976562
vt 0.535156 0.976562
vt 0.265625 0.859375
vt 0.265625 0.875000
vt 0.250000 0.875000
vt 0.250000 0.859375
vt 0.250000 0.617188
vt 0.250000 0.859375
vt 0.234375 0.859375
vt 0.234375 0.617188
vt 0.234375 0.398438
vt 0.234375 0.335938
vt 0.296875 0.335938
vt 0.296875 0.398438
vt 0.296875 0.500000
vt 0.234375 0.500000
vt 0.234375 0.437500
vt 0.296875 0.437500
vt 0.234375 0.539062
vt 0.296875 0.539062
vt 0.335938 0.500000
vt 0.335938 0.437500
vt 0.195312 0.500000
vt 0.195312 0.437500
vt 0.804688 0.929688
vt 0.804688 0.882812
vt 0.851562 0.882812
vt 0.851562 0.929688
vt 0.128906 0.730469
vt 0.175781 0.730469
vt 0.175781 0.777344
vt 0.128906 0.777344
vt 0.175781 0.730469
vt 0.128906 0.730469
vt 0.128906 0.726562
vt 0.175781 0.726562
vt 0.175781 0.777344
vt 0.175781 0.781250
vt 0.128906 0.781250
vt 0.128906 0.777344
vt 0.175781 0.730469
vt 0.179688 0.730469
vt 0.179688 0.777344
vt 0.175781 0.777344
vt 0.128906 0.777344
vt 0.125000 0.777344
vt 0.125000 0.730469
vt 0.218750 0.968750
vt 0.218750 0.914062
vt 0.250000 0.914062
vt 0.250000 0.968750
vt 0.312500 0.968750
vt 0.281250 0.968750
vt 0.281250 0.914062
vt 0.312500 0.914062
vt 0.281250 0.882812
vt 0.312500 0.882812
vt 0.281250 1.000000
vt 0.312500 1.000000
vt 0.312500 0.914062
vt 0.343750 0.914062
vt 0.343750 0.968750
vt 0.312500 0.968750
vt 0.250000 0.968750
vt 0.250000 0.914062
vt 0.187500 0.875000
vt 0.187500 0.828125
vt 0.210938 0.828125
vt 0.210938 0.875000
vt 0.742188 0.898438
vt 0.773438 0.898438
vt 0.773438 0.945312
vt 0.742188 0.945312
vt 0.175781 0.828125
vt 0.175781 0.796875
vt 0.187500 0.800781
vt 0.187500 0.824219
vt 0.175781 0.824219
vt 0.164062 0.828125
vt 0.164062 0.796875
vt 0.175781 0.800781
vt 0.164062 0.828125
vt 0.175781 0.828125
vt 0.175781 0.875000
vt 0.164062 0.875000
vt 0.187500 0.828125
vt 0.187500 0.875000
vt 0.175781 0.875000
vt 0.175781 0.828125
vt 0.046875 0.750000
vt 0.078125 0.750000
vt 0.078125 0.781250
vt 0.046875 0.781250
vt 0.046875 0.875000
vt 0.046875 0.843750
vt 0.078125 0.843750
vt 0.078125 0.875000
vt 0.824219 0.703125
vt 0.792969 0.703125
vt 0.792969 0.601562
vt 0.824219 0.601562
vt 0.046875 0.843750
vt 0.046875 0.781250
vt 0.078125 0.781250
vt 0.078125 0.843750
vt 0.078125 0.875000
vt 0.046875 0.875000
vt 0.046875 0.937500
vt 0.078125 0.937500
vt 0.078125 0.750000
vt 0.093750 0.750000
vt 0.093750 0.781250
vt 0.078125 0.781250
vt 0.093750 0.843750
vt 0.093750 0.875000
vt 0.093750 0.828125
vt 0.093750 0.796875
vt 0.125000 0.796875
vt 0.125000 0.828125
vt 0.093750 0.796875
vt 0.093750 0.828125
vt 0.093750 0.890625
vt 0.093750 0.921875
vt 0.492188 0.949219
vt 0.511719 0.949219
vt 0.511719 0.976562
vt 0.492188 0.976562
vt 0.195312 0.875000
vt 0.195312 0.898438
vt 0.171875 0.898438
vt 0.171875 0.875000
vt 0.171875 0.898438
vt 0.195312 0.898438
vt 0.195312 0.906250
vt 0.171875 0.906250
vt 0.648438 0.945312
vt 0.648438 0.960938
vt 0.625000 0.960938
vt 0.625000 0.945312
vt 0.175781 0.929688
vt 0.175781 0.921875
vt 0.195312 0.921875
vt 0.195312 0.929688
vt 0.175781 0.937500
vt 0.156250 0.937500
vt 0.156250 0.929688
vt 0.175781 0.929688
vt 0.195312 0.914062
vt 0.207031 0.914062
vt 0.207031 0.937500
vt 0.195312 0.937500
vt 0.171875 0.914062
vt 0.648438 0.937500
vt 0.625000 0.933594
vt 0.175781 0.937500
vt 0.187500 0.937500
vt 0.156250 0.921875
vt 0.167969 0.921875
vt 0.031250 0.750000
vt 0.046875 0.750000
vt 0.046875 0.781250
vt 0.031250 0.781250
vt 0.031250 0.875000
vt 0.031250 0.843750
vt 0.855469 0.781250
vt 0.886719 0.781250
vt 0.886719 0.882812
vt 0.855469 0.882812
vt 0.000000 0.796875
vt 0.031250 0.796875
vt 0.031250 0.828125
vt 0.000000 0.828125
vt 0.031250 0.828125
vt 0.031250 0.796875
vt 0.031250 0.890625
vt 0.031250 0.921875
vt 0.929688 0.710938
vt 0.937500 0.710938
vt 0.937500 0.730469
vt 0.929688 0.730469
vt 0.093750 0.972656
vt 0.093750 0.949219
vt 0.101562 0.949219
vt 0.101562 0.972656
vt 0.515625 0.917969
vt 0.539062 0.917969
vt 0.539062 0.953125
vt 0.515625 0.949219
vt 0.148438 0.949219
vt 0.148438 0.972656
vt 0.125000 0.972656
vt 0.125000 0.949219
vt 0.109375 1.000000
vt 0.109375 0.980469
vt 0.117188 0.980469
vt 0.117188 1.000000
vt 0.101562 1.000000
vt 0.093750 1.000000
vt 0.093750 0.980469
vt 0.101562 0.980469
vt 0.921875 0.710938
vt 0.921875 0.730469
vt 0.109375 0.949219
vt 0.109375 0.972656
vt 0.101562 0.972656
vt 0.101562 0.949219
vt 0.125000 0.988281
vt 0.148438 0.988281
vt 0.148438 1.000000
vt 0.125000 1.000000
vt 0.109375 0.992188
vt 0.109375 0.980469
vt 0.207031 0.976562
vt 0.207031 1.000000
vt 0.195312 1.000000
vt 0.195312 0.976562
vt 0.859375 0.937500
vt 0.882812 0.937500
vt 0.882812 0.949219
vt 0.859375 0.949219
vt 0.195312 0.968750
vt 0.195312 0.976562
vt 0.171875 0.976562
vt 0.171875 0.968750
vt 0.175781 0.992188
vt 0.183594 0.984375
vt 0.195312 0.984375
vt 0.195312 0.992188
vt 0.175781 1.000000
vt 0.164062 1.000000
vt 0.156250 0.992188
vt 0.175781 0.992188
vt 0.171875 0.937500
vt 0.195312 0.937500
vt 0.195312 0.960938
vt 0.171875 0.960938
vt 0.535156 0.949219
vt 0.535156 0.976562
vt 0.515625 0.976562
vt 0.515625 0.949219
vt 0.882812 0.960938
vt 0.859375 0.960938
vt 0.195312 0.960938
vt 0.171875 0.960938
vt 0.175781 1.000000
vt 0.195312 1.000000
vt 0.156250 0.984375
vt 0.175781 0.984375
vt 0.093750 0.886719
vt 0.101562 0.886719
vt 0.101562 0.910156
vt 0.093750 0.910156
vt 0.558594 0.984375
vt 0.558594 0.957031
vt 0.566406 0.957031
vt 0.566406 0.984375
vt 0.125000 0.886719
vt 0.148438 0.886719
vt 0.148438 0.910156
vt 0.125000 0.910156
vt 0.828125 0.929688
vt 0.828125 0.957031
vt 0.804688 0.964844
vt 0.804688 0.929688
vt 0.117188 0.937500
vt 0.117188 0.917969
vt 0.125000 0.917969
vt 0.125000 0.937500
vt 0.109375 0.937500
vt 0.101562 0.937500
vt 0.101562 0.917969
vt 0.109375 0.917969
vt 0.109375 0.910156
vt 0.101562 0.910156
vt 0.101562 0.886719
vt 0.109375 0.886719
vt 0.550781 0.984375
vt 0.550781 0.957031
vt 0.148438 0.925781
vt 0.148438 0.937500
vt 0.125000 0.937500
vt 0.125000 0.925781
vt 0.109375 0.929688
vt 0.109375 0.917969
vt 0.093750 0.937500
vt 0.093750 0.925781
vt 0.046875 0.968750
vt 0.046875 0.953125
vt 0.062500 0.953125
vt 0.062500 0.968750
vt 0.031250 0.937500
vt 0.046875 0.937500
vt 0.046875 0.953125
vt 0.031250 0.953125
vt 0.062500 0.937500
vt 0.078125 0.937500
vt 0.078125 0.953125
vt 0.062500 0.953125
vt 0.062500 0.937500
vt 0.062500 0.953125
vt 0.046875 0.953125
vt 0.046875 0.937500
vt 0.062500 0.968750
vt 0.062500 0.953125
vt 0.078125 0.953125
vt 0.078125 0.968750
vt 0.046875 0.968750
vt 0.031250 0.968750
vt 0.031250 0.953125
vt 0.046875 0.953125
vt 0.046875 0.984375
vt 0.046875 0.968750
vt 0.062500 0.968750
vt 0.062500 0.984375
vt 0.062500 0.984375
vt 0.078125 0.984375
vt 0.078125 1.000000
vt 0.062500 1.000000
vt 0.046875 0.984375
vt 0.062500 0.984375
vt 0.062500 1.000000
vt 0.046875 1.000000
vt 0.046875 0.984375
vt 0.031250 0.984375
vt 0.031250 0.968750
vt 0.031250 1.000000
vt 0.625000 0.960938
vt 0.640625 0.960938
vt 0.640625 0.992188
vt 0.625000 0.984375
vn -1.0000 0.0000 0.0000
vn 0.0000 -1.0000 -0.0000
vn 0.0000 1.0000 0.0000
vn 0.0000 0.0000 -1.0000
vn 0.0000 0.0000 1.0000
vn 1.0000 0.0000 0.0000
vn -0.9545 -0.2983 -0.0000
vn 0.9545 -0.2983 -0.0000
vn 0.0000 -0.6839 -0.7295
vn 0.0000 0.6839 -0.7295
vn 0.0000 -0.6839 -0.7296
vn 0.0000 -0.6839 0.7295
vn 0.0000 0.6839 0.7295
vn 0.0000 0.6839 -0.7296
vn 0.0000 0.6839 0.7296
vn 0.0000 -0.6839 0.7296
usemtl trip_hammer
s off
f 31/1/1 33/2/1 36/3/1 32/4/1
f 1/5/2 2/6/2 3/7/2 4/8/2
f 5/9/3 6/10/3 7/11/3 8/12/3
f 8/13/4 7/14/4 1/15/4 4/16/4
f 2/17/5 6/18/5 5/19/5 3/20/5
f 3/21/1 5/22/1 8/23/1 4/24/1
f 7/25/6 6/26/6 2/27/6 1/28/6
f 9/29/2 10/30/2 5/31/2 8/32/2
f 11/33/3 12/34/3 13/35/3 14/36/3
f 14/37/4 13/35/4 9/38/4 8/39/4
f 10/40/5 12/41/5 11/42/5 5/43/5
f 5/22/1 11/44/1 14/45/1 8/23/1
f 13/46/6 12/47/6 10/48/6 9/49/6
f 7/50/2 6/51/2 15/52/2 16/53/2
f 17/54/3 18/55/3 19/56/3 20/57/3
f 20/58/4 19/59/4 7/60/4 16/61/4
f 6/26/5 18/62/5 17/63/5 15/64/5
f 15/65/1 17/66/1 20/67/1 16/68/1
f 19/69/6 18/62/6 6/26/6 7/25/6
f 21/70/2 22/71/2 23/72/2 24/73/2
f 25/74/3 26/75/3 27/76/3 28/77/3
f 28/78/4 27/79/4 21/80/4 24/81/4
f 22/82/5 26/75/5 25/74/5 23/83/5
f 23/84/1 25/85/1 28/86/1 24/87/1
f 27/88/6 26/89/6 22/90/6 21/91/6
f 29/92/2 30/93/2 31/94/2 32/95/2
f 33/96/3 34/97/3 35/98/3 36/99/3
f 36/100/4 35/101/4 29/102/4 32/103/4
f 30/104/5 34/105/5 33/106/5 31/107/5
f 35/108/6 34/109/6 30/110/6 29/111/6
f 37/112/2 38/113/2 39/114/2 40/115/2
f 41/116/3 42/117/3 43/118/3 44/119/3
f 44/119/4 43/118/4 37/112/4 40/115/4
f 38/120/5 42/117/5 41/116/5 39/121/5
f 39/122/1 41/116/1 44/119/1 40/123/1
f 43/118/6 42/117/6 38/124/6 37/125/6
f 45/126/2 46/127/2 47/128/2 48/129/2
f 49/130/3 50/131/3 51/132/3 52/133/3
f 52/134/4 51/135/4 45/136/4 48/137/4
f 46/138/5 50/139/5 49/140/5 47/141/5
f 47/142/1 49/143/1 52/144/1 48/145/1
f 51/135/6 50/146/6 46/147/6 45/148/6
f 53/149/2 54/150/2 55/151/2 56/152/2
f 57/153/3 58/154/3 59/155/3 60/156/3
f 60/156/4 59/155/4 53/157/4 56/158/4
f 54/159/5 58/154/5 57/153/5 55/160/5
f 55/161/1 57/162/1 60/163/1 56/164/1
f 59/155/6 58/154/6 54/165/6 53/166/6
f 61/167/2 62/168/2 63/169/2 64/170/2
f 65/171/3 66/172/3 67/173/3 68/174/3
f 68/175/4 67/176/4 61/177/4 64/178/4
f 62/179/5 66/180/5 65/181/5 63/182/5
f 63/183/7 65/184/7 68/185/7 64/186/7
f 67/187/8 66/188/8 62/189/8 61/190/8
f 69/191/2 70/192/2 71/193/2 72/194/2
f 73/195/3 74/196/3 75/197/3 76/198/3
f 76/199/4 75/200/4 69/201/4 72/202/4
f 71/203/1 73/204/1 76/205/1 72/206/1
f 75/207/6 74/208/6 70/209/6 69/210/6
f 77/211/9 69/212/9 72/213/9 78/214/9
f 76/198/10 75/197/10 79/215/10 80/216/10
f 80/217/4 79/218/4 77/219/4 78/220/4
f 72/206/1 76/205/1 80/221/1 78/222/1
f 79/223/6 75/207/6 69/210/6 77/224/6
f 81/225/2 82/226/2 83/227/2 84/228/2
f 85/229/3 86/230/3 87/231/3 88/232/3
f 88/233/4 87/234/4 81/235/4 84/236/4
f 82/237/5 86/238/5 85/239/5 83/240/5
f 83/241/1 85/242/1 88/243/1 84/244/1
f 87/245/6 86/246/6 82/247/6 81/248/6
f 89/249/2 90/250/2 91/251/2 92/252/2
f 84/236/11 81/235/11 89/249/11 92/253/11
f 90/254/5 82/237/5 83/240/5 91/255/5
f 91/256/1 83/241/1 84/244/1 92/257/1
f 81/248/6 82/247/6 90/258/6 89/259/6
f 70/260/12 93/261/12 94/262/12 71/263/12
f 95/264/13 96/265/13 74/196/13 73/195/13
f 73/266/4 74/267/4 70/268/4 71/269/4
f 93/270/5 96/271/5 95/272/5 94/273/5
f 94/274/1 95/275/1 73/204/1 71/203/1
f 74/208/6 96/276/6 93/277/6 70/209/6
f 97/278/2 98/279/2 99/280/2 100/281/2
f 101/282/3 102/283/3 103/284/3 104/285/3
f 104/286/4 103/287/4 97/288/4 100/289/4
f 98/290/5 102/291/5 101/292/5 99/293/5
f 99/294/1 101/295/1 104/296/1 100/297/1
f 103/298/6 102/299/6 98/300/6 97/301/6
f 105/302/2 97/278/2 100/281/2 106/303/2
f 104/304/14 103/305/14 107/306/14 108/307/14
f 108/308/4 107/309/4 105/310/4 106/311/4
f 100/297/1 104/296/1 108/308/1 106/311/1
f 107/312/6 103/298/6 97/301/6 105/313/6
f 113/314/3 114/315/3 115/316/3 116/317/3
f 116/318/4 115/319/4 109/320/4 112/321/4
f 110/322/15 114/323/15 113/324/15 111/325/15
f 111/326/1 113/327/1 116/328/1 112/329/1
f 115/330/6 114/331/6 110/332/6 109/333/6
f 117/334/2 118/335/2 119/336/2 120/337/2
f 111/338/3 110/339/3 109/340/3 112/341/3
f 112/321/4 109/320/4 117/342/4 120/343/4
f 118/344/5 110/322/5 111/325/5 119/345/5
f 119/346/1 111/326/1 112/329/1 120/347/1
f 109/333/6 110/332/6 118/348/6 117/349/6
f 121/350/2 122/351/2 123/352/2 124/353/2
f 125/354/3 126/355/3 127/356/3 128/357/3
f 128/358/4 127/359/4 121/360/4 124/361/4
f 122/362/5 126/363/5 125/364/5 123/365/5
f 123/366/1 125/367/1 128/368/1 124/369/1
f 127/370/6 126/371/6 122/372/6 121/373/6
f 122/374/16 129/375/16 130/376/16 123/377/16
f 131/378/3 132/379/3 126/355/3 125/354/3
f 129/380/5 132/381/5 131/382/5 130/383/5
f 130/384/1 131/385/1 125/367/1 123/366/1
f 126/371/6 132/386/6 129/387/6 122/372/6
f 133/388/2 134/389/2 135/390/2 136/391/2
f 137/392/3 138/393/3 139/394/3 140/395/3
f 140/396/4 139/397/4 133/398/4 136/399/4
f 134/400/5 138/401/5 137/402/5 135/403/5
f 135/404/1 137/405/1 140/406/1 136/407/1
f 139/408/6 138/409/6 134/410/6 133/411/6
f 141/412/2 142/413/2 143/414/2 144/415/2
f 145/416/3 146/417/3 147/418/3 148/419/3
f 148/420/4 147/421/4 141/422/4 144/423/4
f 142/413/5 146/424/5 145/425/5 143/426/5
f 143/427/1 145/425/1 148/420/1 144/423/1
f 147/428/6 146/429/6 142/430/6 141/431/6
