# Blender v2.79 (sub 0) OBJ File: 'blast_furnace.blend'
# www.blender.org
mtllib blast_furnace_multiblock.mtl
o Cube.001_Cube.002
v 2.000000 0.000000 2.000000
v 2.000000 1.000000 2.000000
v -1.000000 0.000000 2.000000
v -1.000000 1.000000 2.000000
v 2.000000 0.000000 1.000000
v 2.000000 1.000000 1.000000
v -1.000000 0.000000 1.000000
v -1.000000 1.000000 1.000000
v -0.000000 1.000000 0.000000
v -0.000000 0.000000 0.000000
v 1.000000 0.000000 0.000000
v 1.000000 1.000000 0.000000
v 0.000000 0.000000 3.000000
v 1.000000 0.000000 3.000000
v 1.000000 1.000000 3.000000
v 0.000000 1.000000 3.000000
v 1.250000 4.500000 1.750000
v -0.250000 4.500000 1.750000
v -0.250000 4.500000 1.250000
v 1.250000 4.500000 1.250000
v 0.250000 4.500000 0.750000
v 0.750000 4.500000 0.750000
v 0.750000 4.500000 2.250000
v 0.250000 4.500000 2.250000
v 0.750000 4.500000 1.750000
v 1.000000 5.000000 2.000000
v 0.250000 4.500000 1.750000
v 0.000000 5.000000 2.000000
v 0.750000 4.500000 1.250000
v 1.000000 5.000000 1.000000
v 0.250000 4.500000 1.250000
v 0.000000 5.000000 1.000000
vt 0.000000 0.833333
vt 0.000000 1.000000
vt 0.166667 1.000000
vt 0.166667 0.833333
vt -0.000000 1.000000
vt 0.000000 0.833333
vt 0.166667 0.833333
vt 0.166667 1.000000
vt 0.333333 0.666667
vt 0.333333 0.833333
vt 0.166667 0.833333
vt 0.166667 0.666667
vt 0.750000 -0.000000
vt 0.916667 0.000000
vt 0.875000 0.666667
vt 0.791667 0.666667
vt 0.666667 0.500000
vt 0.666667 0.666667
vt 0.500000 0.666667
vt 0.500000 0.500000
vt 0.750000 0.000000
vt 0.916667 0.000000
vt 0.875000 0.666667
vt 0.791667 0.666667
vt 0.333333 1.000000
vt 0.333333 0.833333
vt 0.333333 0.833333
vt 0.333333 1.000000
vt 0.500000 1.000000
vt 0.500000 0.833333
vt 0.500000 0.833333
vt 0.500000 0.666667
vt 0.333333 0.666667
vt 0.333333 0.833333
vt 0.000000 0.833333
vt 0.000000 0.666667
vt 0.916667 0.000000
vt 0.875000 0.666667
vt 0.250000 0.166667
vt 0.250000 0.083333
vt 0.500000 0.083333
vt 0.500000 0.166667
vt 0.416667 0.250000
vt 0.333333 0.250000
vt 0.333333 -0.000000
vt 0.416667 0.000000
vt 0.750000 -0.000000
vt 0.916667 -0.000000
vt 0.875000 0.666667
vt 0.791667 0.666667
vt 0.750000 0.000000
vt 0.916667 0.000000
vt 0.875000 0.666667
vt 0.791667 0.666667
vt 0.750000 0.000000
vt 0.916667 0.000000
vt 0.875000 0.666667
vt 0.791667 0.666667
vt 0.750000 0.000000
vt 0.916667 -0.000000
vt 0.875000 0.666667
vt 0.791667 0.666667
vt 0.750000 0.000000
vt 0.791667 0.666667
vt 0.666667 0.875000
vt 0.583333 0.833333
vt 0.583333 1.000000
vt 0.666667 0.958333
vt 0.666667 0.875000
vt 0.583333 0.833333
vt 0.583333 1.000000
vt 0.666667 0.958333
vt 0.583333 0.833333
vt 0.666667 0.875000
vt 0.666667 0.958333
vt 0.583333 1.000000
vt 0.500000 0.833333
vt 0.666667 0.833333
vt 0.666667 1.000000
vt 0.500000 1.000000
vt 0.250326 0.124995
vt 0.624308 0.124995
vt 0.499647 0.000335
vt 0.374986 0.000335
vt 0.250326 0.249656
vt 0.624308 0.249656
vt 0.999665 0.374317
vt 0.999665 0.000335
vt 0.875005 0.124995
vt 0.875005 0.249656
vt 0.687308 0.447310
vt 0.624977 0.447310
vt 0.624977 0.509640
vt 0.687308 0.509640
vn -1.0000 0.0000 0.0000
vn 0.7071 0.0000 -0.7071
vn 1.0000 0.0000 0.0000
vn 0.6931 0.1980 0.6931
vn 0.0000 0.0000 -1.0000
vn 0.9778 0.2095 0.0000
vn -0.7071 0.0000 -0.7071
vn 0.0000 0.0000 1.0000
vn -0.7071 0.0000 0.7071
vn 0.7071 0.0000 0.7071
vn 0.0000 0.2095 0.9778
vn 0.0000 1.0000 0.0000
vn -0.9778 0.2095 0.0000
vn 0.0000 0.2095 -0.9778
vn -0.6931 0.1980 -0.6931
vn 0.6931 0.1980 -0.6931
vn -0.6931 0.1980 0.6931
vn 0.0000 -0.4472 0.8944
vn -0.8944 -0.4472 0.0000
vn 0.0000 -0.4472 -0.8944
vn 0.8944 -0.4472 0.0000
vn 0.0000 -1.0000 0.0000
usemtl BlastFurnace
s off
f 3/1/1 4/2/1 8/3/1 7/4/1
f 6/5/2 5/6/2 11/7/2 12/8/2
f 5/9/3 6/10/3 2/11/3 1/12/3
f 15/13/4 2/14/4 17/15/4 23/16/4
f 10/17/5 9/18/5 12/19/5 11/20/5
f 2/21/6 6/22/6 20/23/6 17/24/6
f 7/4/7 8/3/7 9/25/7 10/26/7
f 14/27/8 15/28/8 16/29/8 13/30/8
f 4/31/9 3/32/9 13/33/9 16/34/9
f 1/12/10 2/11/10 15/35/10 14/36/10
f 16/37/11 15/13/11 23/16/11 24/38/11
f 19/39/12 18/40/12 17/41/12 20/42/12
f 19/39/12 20/42/12 22/43/12 21/44/12
f 17/41/12 18/40/12 24/45/12 23/46/12
f 8/47/13 4/48/13 18/49/13 19/50/13
f 12/51/14 9/52/14 21/53/14 22/54/14
f 9/55/15 8/56/15 19/57/15 21/58/15
f 6/59/16 12/60/16 22/61/16 20/62/16
f 4/63/17 16/37/17 24/38/17 18/64/17
f 25/65/18 26/66/18 28/67/18 27/68/18
f 27/69/19 28/70/19 32/71/19 31/72/19
f 31/72/20 32/71/20 30/73/20 29/74/20
f 29/75/21 30/76/21 26/66/21 25/65/21
f 32/77/12 28/78/12 26/79/12 30/80/12
usemtl BlastFurnace_NONE
f 3/81/22 1/82/22 14/83/22 13/84/22
f 3/81/22 7/85/22 5/86/22 1/82/22
f 5/87/22 7/88/22 10/89/22 11/90/22
f 27/91/22 31/92/22 29/93/22 25/94/22
